HIERARCHY
ROOT SimulationBone
{
	OFFSET 0.000000 0.000000 0.000000
	CHANNELS 6 Xposition Yposition Zposition Zrotation Yrotation Xrotation 
	JOINT Hips
	{
		OFFSET 0.000000 0.000000 0.000000
		CHANNELS 6 Xposition Yposition Zposition Zrotation Yrotation Xrotation 
		JOINT LeftUpLeg
		{
			OFFSET 0.103454 1.857828 10.548502
			CHANNELS 3 Zrotation Yrotation Xrotation
			JOINT LeftLeg
			{
				OFFSET 43.500000 -0.000023 -0.000008
				CHANNELS 3 Zrotation Yrotation Xrotation
				JOINT LeftFoot
				{
					OFFSET 42.372192 0.000008 0.000008
					CHANNELS 3 Zrotation Yrotation Xrotation
					JOINT LeftToe
					{
						OFFSET 17.299997 -0.000001 0.000000
						CHANNELS 3 Zrotation Yrotation Xrotation
						End Site
						{
							OFFSET 0.000000 0.000000 0.000000
						}
					}
				}
			}
		}
		JOINT RightUpLeg
		{
			OFFSET 0.103459 1.857828 -10.548505
			CHANNELS 3 Zrotation Yrotation Xrotation
			JOINT RightLeg
			{
				OFFSET 43.500046 -0.000027 0.000015
				CHANNELS 3 Zrotation Yrotation Xrotation
				JOINT RightFoot
				{
					OFFSET 42.372261 -0.000008 0.000019
					CHANNELS 3 Zrotation Yrotation Xrotation
					JOINT RightToe
					{
						OFFSET 17.299992 -0.000006 -0.000002
						CHANNELS 3 Zrotation Yrotation Xrotation
						End Site
						{
							OFFSET 0.000000 0.000000 0.000000
						}
					}
				}
			}
		}
		JOINT Spine
		{
			OFFSET 6.901967 -2.603729 0.000006
			CHANNELS 3 Zrotation Yrotation Xrotation
			JOINT Spine1
			{
				OFFSET 12.588098 -0.000001 -0.000005
				CHANNELS 3 Zrotation Yrotation Xrotation
				JOINT Spine2
				{
					OFFSET 12.343207 0.000001 -0.000003
					CHANNELS 3 Zrotation Yrotation Xrotation
					JOINT Neck
					{
						OFFSET 25.832897 -0.000006 -0.000001
						CHANNELS 3 Zrotation Yrotation Xrotation
						JOINT Head
						{
							OFFSET 11.766602 0.000010 0.000005
							CHANNELS 3 Zrotation Yrotation Xrotation
							End Site
							{
								OFFSET 0.000000 0.000000 0.000000
							}
						}
					}
					JOINT LeftShoulder
					{
						OFFSET 19.745901 -1.480368 6.000114
						CHANNELS 3 Zrotation Yrotation Xrotation
						JOINT LeftArm
						{
							OFFSET 11.284125 -0.000009 -0.000026
							CHANNELS 3 Zrotation Yrotation Xrotation
							JOINT LeftForeArm
							{
								OFFSET 33.000046 0.000005 0.000037
								CHANNELS 3 Zrotation Yrotation Xrotation
								JOINT LeftHand
								{
									OFFSET 25.200003 0.000016 -0.000001
									CHANNELS 3 Zrotation Yrotation Xrotation
									End Site
									{
										OFFSET 0.000000 0.000000 0.000000
									}
								}
							}
						}
					}
					JOINT RightShoulder
					{
						OFFSET 19.746088 -1.480377 -6.000074
						CHANNELS 3 Zrotation Yrotation Xrotation
						JOINT RightArm
						{
							OFFSET 11.284132 -0.000015 -0.000021
							CHANNELS 3 Zrotation Yrotation Xrotation
							JOINT RightForeArm
							{
								OFFSET 33.000107 0.000015 0.000018
								CHANNELS 3 Zrotation Yrotation Xrotation
								JOINT RightHand
								{
									OFFSET 25.199774 0.000138 0.000420
									CHANNELS 3 Zrotation Yrotation Xrotation
									End Site
									{
										OFFSET 0.000000 0.000000 0.000000
									}
								}
							}
						}
					}
				}
			}
		}
	}
}
MOTION
Frames: 13
Frame Time: 0.016667
-57.560564 0.000000 -48.148992 0.000000 205.765327 0.000000 -0.823253 90.752248 -0.680193 89.861137 -0.499732 178.579573 169.738436 -8.236912 170.228767 -22.703967 1.111902 -4.954406 80.778949 1.289114 -9.013740 21.454553 0.003087 0.000000 171.897944 6.677269 -171.708037 -23.236776 -2.429756 6.737404 87.565806 -2.831945 10.291525 21.454558 -0.003109 -0.000018 6.380876 0.434169 -0.060664 2.748835 0.869575 -0.111220 2.430710 0.869027 -0.116465 14.843711 11.092209 19.013801 -23.197364 -17.301434 28.449285 -164.509260 -81.099383 -17.249702 -20.682513 61.831102 45.860574 -33.170322 -13.634331 1.206608 12.514543 -1.513713 -13.498812 170.621781 75.315016 -8.193502 -2.693148 -60.023002 -18.879325 -34.953332 11.260384 -1.118179 7.134032 1.355442 -8.211204 
-57.532099 0.000000 -48.075948 0.000000 205.722155 0.000000 -0.801256 90.769547 -0.686859 89.861798 -0.529228 178.290051 169.881203 -8.143402 170.173139 -22.612308 1.120887 -5.140303 80.766296 1.410772 -9.043325 21.454555 0.003088 -0.000000 171.881560 6.754397 -171.886819 -23.142836 -2.407643 6.627266 87.471308 -2.737728 10.352802 21.454557 -0.003108 -0.000017 6.368419 0.418578 -0.092001 2.723397 0.839105 -0.174343 2.405276 0.838174 -0.179402 14.877731 11.034748 18.932752 -23.116304 -17.282885 28.332759 -164.311810 -81.038132 -17.450402 -20.563154 61.680725 45.693175 -33.098594 -13.637075 1.204974 12.469561 -1.350083 -13.691092 171.118463 75.249529 -7.687911 -2.644412 -60.031446 -19.012708 -34.656888 11.134977 -1.103335 7.081614 1.687103 -7.744666 
-57.514556 0.000000 -48.004257 0.000000 205.718390 0.000000 -0.788150 90.779675 -0.691265 89.872364 -0.558629 177.984417 170.008199 -8.066589 170.012692 -22.552663 1.151610 -5.250527 80.769346 1.483343 -9.059609 21.454553 0.003087 -0.000001 171.838648 6.837675 -172.049027 -23.122777 -2.381321 6.517721 87.400788 -2.648124 10.401158 21.454556 -0.003108 -0.000017 6.361797 0.406615 -0.121035 2.708892 0.815836 -0.232732 2.390765 0.814553 -0.237652 14.886117 10.977820 18.847145 -23.062006 -17.285850 28.227906 -164.122696 -80.994490 -17.642571 -20.529529 61.578669 45.528290 -32.986416 -13.675260 1.203593 12.481797 -1.421500 -13.141207 171.521349 75.196264 -7.277676 -2.503725 -60.041686 -19.181805 -34.410785 11.050609 -1.092350 7.012077 2.052401 -7.019111 
-57.505952 0.000000 -47.932984 0.000000 205.743183 0.000000 -0.781020 90.784508 -0.692056 89.889368 -0.586032 177.677531 170.122185 -8.009093 169.768546 -22.521311 1.195795 -5.294295 80.787456 1.513937 -9.060567 21.454551 0.003086 -0.000002 171.781361 6.918902 -172.190462 -23.156255 -2.357116 6.413153 87.345660 -2.564730 10.440421 21.454557 -0.003108 -0.000017 6.359123 0.398161 -0.147565 2.704462 0.799532 -0.285991 2.386331 0.797929 -0.290815 14.871837 10.930801 18.762581 -23.015501 -17.308971 28.136472 -163.951722 -80.980485 -17.816142 -20.591436 61.524245 45.381100 -32.836997 -13.732556 1.202346 12.558367 -1.671154 -12.163002 171.830401 75.156946 -6.962853 -2.278039 -60.059477 -19.366865 -34.218711 11.009736 -1.085411 6.952289 2.410683 -6.167739 
-57.504781 0.000000 -47.861929 0.000000 205.780866 0.000000 -0.776949 90.786785 -0.691238 89.903819 -0.614966 177.388394 170.224100 -7.964482 169.472713 -22.507967 1.243976 -5.288652 80.816571 1.514669 -9.045215 21.454552 0.003086 -0.000002 171.718178 6.997372 -172.306383 -23.219576 -2.340669 6.316095 87.297389 -2.487498 10.476049 21.454557 -0.003108 -0.000017 6.356998 0.391651 -0.171717 2.705767 0.787072 -0.334430 2.387644 0.785177 -0.339176 14.841675 10.903383 18.685747 -22.964096 -17.348782 28.061640 -163.804733 -81.004866 -17.965083 -20.743469 61.515383 45.263207 -32.658355 -13.794881 1.201521 12.694722 -2.018238 -11.067234 172.070595 75.129442 -6.718042 -1.983424 -60.086202 -19.545342 -34.079656 11.007683 -1.082212 6.921327 2.725647 -5.339314 
-57.510031 0.000000 -47.791345 0.000000 205.812290 0.000000 -0.773573 90.789047 -0.690681 89.915469 -0.643490 177.139717 170.315398 -7.928496 169.180166 -22.508284 1.282772 -5.262464 80.852493 1.504423 -9.018893 21.454553 0.003088 -0.000001 171.664756 7.070011 -172.387978 -23.283476 -2.337262 6.224629 87.247217 -2.413725 10.511069 21.454558 -0.003108 -0.000017 6.355214 0.386700 -0.194559 2.709865 0.777704 -0.380207 2.391749 0.775532 -0.384894 14.811994 10.901952 18.624891 -22.910857 -17.399379 28.009712 -163.700030 -81.065159 -18.070845 -20.958607 61.548923 45.175648 -32.458134 -13.857499 1.200989 12.862781 -2.371376 -10.077349 172.291193 75.106423 -6.493121 -1.657230 -60.109945 -19.694392 -33.979606 11.026569 -1.081241 6.922890 2.973912 -4.661118 
-57.520249 0.000000 -47.721779 0.000000 205.816826 0.000000 -0.768417 90.793190 -0.691738 89.925807 -0.668764 176.954388 170.396947 -7.897053 168.946909 -22.520111 1.300221 -5.245948 80.891673 1.502532 -8.988996 21.454551 0.003093 -0.000000 171.635419 7.133518 -172.430042 -23.321899 -2.350596 6.137540 87.188834 -2.341598 10.547538 21.454559 -0.003109 -0.000017 6.354191 0.383348 -0.217201 2.714116 0.771529 -0.425552 2.395994 0.769080 -0.430202 14.800193 10.929258 18.586899 -22.862865 -17.454008 27.985728 -163.655039 -81.152164 -18.115833 -21.196674 61.619634 45.107645 -32.252199 -13.915189 1.200483 13.034855 -2.648448 -9.348717 172.537846 75.081131 -6.241618 -1.337682 -60.116586 -19.796794 -33.901577 11.046469 -1.080837 6.954548 3.137976 -4.233379 
-57.533589 0.000000 -47.653643 0.000000 205.772651 0.000000 -0.760055 90.798737 -0.693924 89.934739 -0.689913 176.851055 170.466659 -7.864196 168.810106 -22.543984 1.293922 -5.262921 80.933287 1.523331 -8.964896 21.454550 0.003096 0.000000 171.631889 7.185899 -172.446034 -23.327253 -2.378624 6.060841 87.125926 -2.275567 10.586151 21.454560 -0.003109 -0.000017 6.353684 0.382162 -0.239973 2.715689 0.769683 -0.471115 2.397560 0.766958 -0.475755 14.818249 10.976673 18.571718 -22.827421 -17.504866 27.986453 -163.666698 -81.240981 -18.103341 -21.386394 61.714801 45.011935 -32.089662 -13.951470 1.199619 13.193168 -2.821636 -8.853184 172.819822 75.054862 -5.953973 -1.043718 -60.095779 -19.859676 -33.829622 11.052526 -1.079665 7.007271 3.210378 -4.068908 
-57.548149 0.000000 -47.586400 0.000000 205.659091 0.000000 -0.747693 90.804790 -0.695360 89.941633 -0.707016 176.844632 170.524120 -7.824356 168.790521 -22.578096 1.265845 -5.329791 80.976822 1.576195 -8.954849 21.454552 0.003093 -0.000000 171.651195 7.225890 -172.457570 -23.299955 -2.416426 6.003204 87.063644 -2.222178 10.627312 21.454559 -0.003109 -0.000017 6.353374 0.383012 -0.261974 2.712546 0.771879 -0.515101 2.394423 0.768890 -0.519753 14.873101 11.043706 18.575301 -22.810729 -17.548012 28.006838 -163.732787 -81.311586 -18.035774 -21.470947 61.823126 44.844650 -32.012072 -13.952101 1.198267 13.320010 -2.886413 -8.528558 173.145774 75.023699 -5.621420 -0.785683 -60.035406 -19.897761 -33.750469 11.034004 -1.076726 7.071515 3.190626 -4.145030 
-57.562164 0.000000 -47.518796 0.000000 205.457776 0.000000 -0.730700 90.811127 -0.692957 89.945238 -0.721972 176.942797 170.578592 -7.775300 168.862138 -22.608734 1.225989 -5.439783 81.020297 1.655637 -8.960748 21.454555 0.003090 0.000000 171.684332 7.253999 -172.500170 -23.253989 -2.453330 5.976821 87.003031 -2.190081 10.671540 21.454558 -0.003108 -0.000017 6.353324 0.382445 -0.278159 2.706036 0.771097 -0.547500 2.387924 0.767916 -0.552146 14.956885 11.173892 18.584513 -22.814442 -17.596063 28.042801 -163.876139 -81.379251 -17.889903 -21.483611 61.946645 44.610395 -31.997325 -13.923083 1.196933 13.393687 -2.875853 -8.360198 173.555803 74.954697 -5.203899 -0.559001 -59.912724 -19.931683 -33.660496 10.991610 -1.072002 7.138953 3.095124 -4.384327 
-57.574344 0.000000 -47.449741 0.000000 205.154949 0.000000 -0.708542 90.817694 -0.683688 89.945662 -0.735822 177.147779 170.641921 -7.718111 168.983081 -22.621384 1.185968 -5.577217 81.062053 1.750647 -8.981524 21.454554 0.003092 0.000001 171.722898 7.270767 -172.607624 -23.205085 -2.477510 5.992091 86.943872 -2.186776 10.718231 21.454557 -0.003108 -0.000017 6.353613 0.377406 -0.283908 2.698569 0.761133 -0.559135 2.380462 0.757885 -0.563720 15.059883 11.405687 18.587056 -22.840678 -17.660596 28.090355 -164.099629 -81.461167 -17.662742 -21.481759 62.085351 44.352740 -32.007535 -13.879716 1.196124 13.394481 -2.832111 -8.360495 174.062066 74.821410 -4.689636 -0.352163 -59.713988 -19.983062 -33.559791 10.930623 -1.065854 7.202692 2.945435 -4.698709 
-57.584165 0.000000 -47.378674 0.000000 204.742939 0.000000 -0.680623 90.824417 -0.664501 89.949002 -0.744461 177.457274 170.726616 -7.664003 169.094788 -22.610216 1.155645 -5.713877 81.103263 1.843003 -9.010584 21.454553 0.003094 0.000001 171.767018 7.274995 -172.792830 -23.162329 -2.478090 6.048626 86.885066 -2.213053 10.762129 21.454558 -0.003108 -0.000017 6.353985 0.369758 -0.280434 2.693393 0.745751 -0.552381 2.375281 0.742542 -0.556873 15.179733 11.713130 18.582595 -22.897936 -17.732517 28.144917 -164.293396 -81.547212 -17.465758 -21.527280 62.217810 44.224445 -32.005401 -13.854271 1.196035 13.316655 -2.795798 -8.601661 174.552629 74.653984 -4.192180 -0.139742 -59.472265 -20.072689 -33.453600 10.863181 -1.059148 7.259617 2.767484 -5.012329 
-57.592328 0.000000 -47.305768 0.000000 204.218411 0.000000 -0.647456 90.831000 -0.634164 89.960486 -0.745137 177.867572 170.840349 -7.622409 169.144361 -22.573862 1.144073 -5.822902 81.145247 1.915308 -9.041922 21.454552 0.003093 0.000001 171.816127 7.268281 -173.054410 -23.133961 -2.447181 6.139572 86.827420 -2.265504 10.797078 21.454558 -0.003108 -0.000017 6.354481 0.362026 -0.270242 2.693370 0.730064 -0.532176 2.375246 0.726972 -0.536576 15.312737 12.055265 18.573121 -22.994109 -17.799372 28.201799 -164.349183 -81.630203 -17.408693 -21.674053 62.325547 44.380512 -31.959622 -13.880704 1.197167 13.165606 -2.799697 -9.159166 174.924117 74.490978 -3.816295 0.098049 -59.226934 -20.213237 -33.347722 10.803115 -1.052876 7.308005 2.586480 -5.263078 
